# xmcd CD database file
#
# Track frame offsets:
#	150
#	11888
#	24988
#	35696
#	48749
#	62393
#	75181
#	89107
#	101319
#	114628
#	126691
#	138823
#	153843
#	168596
#	181206
#	189478
#	195787
#
# Disc length: 2776 seconds
#
# Revision: 0
# Processed by: cddbd v1.5.2PL0 Copyright (c) Steve Scherf et al.
# Submitted via: CDex 1.70beta2
#
DISCID=d80ad611
DTITLE=Various Artist - Country Roots - CD 9
DYEAR=2007
DGENRE=Country Classics
TTITLE0=Merle Travis - Cincinati Lou
TTITLE1=Roy Acuff - Blue Moon Of Kentucky
TTITLE2=Bob  Wills - Cowboy Stomp
TTITLE3=Bill Haley - Yodel Your Blues Away
TTITLE4=Hank Williams - Ramblin' Man
TTITLE5=Kitty Wells And Red Foley - I'm A Stranger In My Home
TTITLE6=The Carter Family - Little Darling Pal Of Mine
TTITLE7=Gene Autry - Have I Told You Lately That I Love You
TTITLE8=Gene Autry - Rudolph The Red-Nosed Reindeer
TTITLE9=Roy Acuff - This World Can't Stand Long
TTITLE10=Hank Williams - Lost Highway
TTITLE11=The Carter Family - Picture On The Wall
TTITLE12=Jimmie Rodgers - Down On The Old Road To Home
TTITLE13=Tex Ritter - Gun Smoke
TTITLE14=Gene Autry - Carry Me Back To The Lone Prairie
TTITLE15=The Carter Family - Happiest Days Of All
TTITLE16=Roy Acuff - Lonesome Old River Blues
EXTD=YEAR: 2007
EXTT0=
EXTT1=
EXTT2=
EXTT3=
EXTT4=
EXTT5=
EXTT6=
EXTT7=
EXTT8=
EXTT9=
EXTT10=
EXTT11=
EXTT12=
EXTT13=
EXTT14=
EXTT15=
EXTT16=
PLAYORDER=
